<mxfile host="app.diagrams.net" modified="2021-10-21T11:41:09.410Z" agent="5.0 (Windows)" etag="HgJjPExAw5D-US3xPZNb" version="15.5.8" type="github">
  <diagram id="-oKt8M-A-XIeJBn6rVSu" name="Page-1">
    <mxGraphModel dx="1221" dy="606" grid="1" gridSize="10" guides="1" tooltips="1" connect="1" arrows="1" fold="1" page="1" pageScale="1" pageWidth="300000" pageHeight="300000" math="0" shadow="0">
      <root>
        <mxCell id="0" />
        <mxCell id="1" parent="0" />
        <mxCell id="iiKmWWzBk5WKIRumK6L6-1" value="Money" style="shape=table;startSize=30;container=1;collapsible=1;childLayout=tableLayout;fixedRows=1;rowLines=0;fontStyle=1;align=center;resizeLast=1;fillColor=none;gradientColor=none;" parent="1" vertex="1">
          <mxGeometry x="10" y="190" width="180" height="158.75" as="geometry">
            <mxRectangle x="-83" y="305.25" width="65" height="30" as="alternateBounds" />
          </mxGeometry>
        </mxCell>
        <mxCell id="iiKmWWzBk5WKIRumK6L6-2" value="" style="shape=partialRectangle;collapsible=0;dropTarget=0;pointerEvents=0;fillColor=none;top=0;left=0;bottom=1;right=0;points=[[0,0.5],[1,0.5]];portConstraint=eastwest;" parent="iiKmWWzBk5WKIRumK6L6-1" vertex="1">
          <mxGeometry y="30" width="180" height="30" as="geometry" />
        </mxCell>
        <mxCell id="iiKmWWzBk5WKIRumK6L6-3" value="id" style="shape=partialRectangle;connectable=0;fillColor=none;top=0;left=0;bottom=0;right=0;fontStyle=1;overflow=hidden;" parent="iiKmWWzBk5WKIRumK6L6-2" vertex="1">
          <mxGeometry width="62.54998779296875" height="30" as="geometry">
            <mxRectangle width="62.54998779296875" height="30" as="alternateBounds" />
          </mxGeometry>
        </mxCell>
        <mxCell id="iiKmWWzBk5WKIRumK6L6-4" value="money" style="shape=partialRectangle;connectable=0;fillColor=none;top=0;left=0;bottom=0;right=0;align=left;spacingLeft=6;fontStyle=5;overflow=hidden;" parent="iiKmWWzBk5WKIRumK6L6-2" vertex="1">
          <mxGeometry x="62.54998779296875" width="117.45001220703125" height="30" as="geometry">
            <mxRectangle width="117.45001220703125" height="30" as="alternateBounds" />
          </mxGeometry>
        </mxCell>
        <mxCell id="iiKmWWzBk5WKIRumK6L6-5" value="" style="shape=partialRectangle;collapsible=0;dropTarget=0;pointerEvents=0;fillColor=none;top=0;left=0;bottom=0;right=0;points=[[0,0.5],[1,0.5]];portConstraint=eastwest;" parent="iiKmWWzBk5WKIRumK6L6-1" vertex="1">
          <mxGeometry y="60" width="180" height="30" as="geometry" />
        </mxCell>
        <mxCell id="iiKmWWzBk5WKIRumK6L6-6" value="Name" style="shape=partialRectangle;connectable=0;fillColor=none;top=0;left=0;bottom=0;right=0;editable=1;overflow=hidden;" parent="iiKmWWzBk5WKIRumK6L6-5" vertex="1">
          <mxGeometry width="62.54998779296875" height="30" as="geometry">
            <mxRectangle width="62.54998779296875" height="30" as="alternateBounds" />
          </mxGeometry>
        </mxCell>
        <mxCell id="iiKmWWzBk5WKIRumK6L6-7" value="varchar" style="shape=partialRectangle;connectable=0;fillColor=none;top=0;left=0;bottom=0;right=0;align=left;spacingLeft=6;overflow=hidden;" parent="iiKmWWzBk5WKIRumK6L6-5" vertex="1">
          <mxGeometry x="62.54998779296875" width="117.45001220703125" height="30" as="geometry">
            <mxRectangle width="117.45001220703125" height="30" as="alternateBounds" />
          </mxGeometry>
        </mxCell>
        <mxCell id="iiKmWWzBk5WKIRumK6L6-8" value="" style="shape=partialRectangle;collapsible=0;dropTarget=0;pointerEvents=0;fillColor=none;top=0;left=0;bottom=0;right=0;points=[[0,0.5],[1,0.5]];portConstraint=eastwest;" parent="iiKmWWzBk5WKIRumK6L6-1" vertex="1">
          <mxGeometry y="90" width="180" height="59" as="geometry" />
        </mxCell>
        <mxCell id="iiKmWWzBk5WKIRumK6L6-9" value="Description" style="shape=partialRectangle;connectable=0;fillColor=none;top=0;left=0;bottom=0;right=0;editable=1;overflow=hidden;" parent="iiKmWWzBk5WKIRumK6L6-8" vertex="1">
          <mxGeometry width="62.54998779296875" height="59" as="geometry">
            <mxRectangle width="62.54998779296875" height="59" as="alternateBounds" />
          </mxGeometry>
        </mxCell>
        <mxCell id="iiKmWWzBk5WKIRumK6L6-10" value="Text" style="shape=partialRectangle;connectable=0;fillColor=none;top=0;left=0;bottom=0;right=0;align=left;spacingLeft=6;overflow=hidden;" parent="iiKmWWzBk5WKIRumK6L6-8" vertex="1">
          <mxGeometry x="62.54998779296875" width="117.45001220703125" height="59" as="geometry">
            <mxRectangle width="117.45001220703125" height="59" as="alternateBounds" />
          </mxGeometry>
        </mxCell>
        <mxCell id="iiKmWWzBk5WKIRumK6L6-11" value="" style="endArrow=none;html=1;rounded=0;entryX=0.993;entryY=0.02;entryDx=0;entryDy=0;entryPerimeter=0;" parent="1" target="iiKmWWzBk5WKIRumK6L6-8" edge="1">
          <mxGeometry relative="1" as="geometry">
            <mxPoint x="130" y="438.25" as="sourcePoint" />
            <mxPoint x="290" y="438.25" as="targetPoint" />
          </mxGeometry>
        </mxCell>
        <mxCell id="iiKmWWzBk5WKIRumK6L6-12" value="Player" style="shape=table;startSize=30;container=1;collapsible=1;childLayout=tableLayout;fixedRows=1;rowLines=0;fontStyle=1;align=center;resizeLast=1;fillColor=none;gradientColor=none;" parent="1" vertex="1">
          <mxGeometry x="415" y="360" width="180" height="199.75" as="geometry">
            <mxRectangle x="202" y="305.25" width="63" height="30" as="alternateBounds" />
          </mxGeometry>
        </mxCell>
        <mxCell id="iiKmWWzBk5WKIRumK6L6-13" value="" style="shape=partialRectangle;collapsible=0;dropTarget=0;pointerEvents=0;fillColor=none;top=0;left=0;bottom=1;right=0;points=[[0,0.5],[1,0.5]];portConstraint=eastwest;" parent="iiKmWWzBk5WKIRumK6L6-12" vertex="1">
          <mxGeometry y="30" width="180" height="29" as="geometry" />
        </mxCell>
        <mxCell id="iiKmWWzBk5WKIRumK6L6-14" value="id" style="shape=partialRectangle;connectable=0;fillColor=none;top=0;left=0;bottom=0;right=0;fontStyle=1;overflow=hidden;" parent="iiKmWWzBk5WKIRumK6L6-13" vertex="1">
          <mxGeometry width="76.14999389648438" height="29" as="geometry">
            <mxRectangle width="76.14999389648438" height="29" as="alternateBounds" />
          </mxGeometry>
        </mxCell>
        <mxCell id="iiKmWWzBk5WKIRumK6L6-15" value="idplayer" style="shape=partialRectangle;connectable=0;fillColor=none;top=0;left=0;bottom=0;right=0;align=left;spacingLeft=6;fontStyle=5;overflow=hidden;" parent="iiKmWWzBk5WKIRumK6L6-13" vertex="1">
          <mxGeometry x="76.14999389648438" width="103.85000610351562" height="29" as="geometry">
            <mxRectangle width="103.85000610351562" height="29" as="alternateBounds" />
          </mxGeometry>
        </mxCell>
        <mxCell id="iiKmWWzBk5WKIRumK6L6-16" value="" style="shape=partialRectangle;collapsible=0;dropTarget=0;pointerEvents=0;fillColor=none;top=0;left=0;bottom=0;right=0;points=[[0,0.5],[1,0.5]];portConstraint=eastwest;" parent="iiKmWWzBk5WKIRumK6L6-12" vertex="1">
          <mxGeometry y="59" width="180" height="30" as="geometry" />
        </mxCell>
        <mxCell id="iiKmWWzBk5WKIRumK6L6-17" value="money_id" style="shape=partialRectangle;connectable=0;fillColor=none;top=0;left=0;bottom=0;right=0;editable=1;overflow=hidden;" parent="iiKmWWzBk5WKIRumK6L6-16" vertex="1">
          <mxGeometry width="76.14999389648438" height="30" as="geometry">
            <mxRectangle width="76.14999389648438" height="30" as="alternateBounds" />
          </mxGeometry>
        </mxCell>
        <mxCell id="iiKmWWzBk5WKIRumK6L6-18" value="fk" style="shape=partialRectangle;connectable=0;fillColor=none;top=0;left=0;bottom=0;right=0;align=left;spacingLeft=6;overflow=hidden;" parent="iiKmWWzBk5WKIRumK6L6-16" vertex="1">
          <mxGeometry x="76.14999389648438" width="103.85000610351562" height="30" as="geometry">
            <mxRectangle width="103.85000610351562" height="30" as="alternateBounds" />
          </mxGeometry>
        </mxCell>
        <mxCell id="iiKmWWzBk5WKIRumK6L6-19" value="" style="shape=partialRectangle;collapsible=0;dropTarget=0;pointerEvents=0;fillColor=none;top=0;left=0;bottom=0;right=0;points=[[0,0.5],[1,0.5]];portConstraint=eastwest;" parent="iiKmWWzBk5WKIRumK6L6-12" vertex="1">
          <mxGeometry y="89" width="180" height="30" as="geometry" />
        </mxCell>
        <mxCell id="iiKmWWzBk5WKIRumK6L6-20" value="timetable_id" style="shape=partialRectangle;connectable=0;fillColor=none;top=0;left=0;bottom=0;right=0;editable=1;overflow=hidden;" parent="iiKmWWzBk5WKIRumK6L6-19" vertex="1">
          <mxGeometry width="76.14999389648438" height="30" as="geometry">
            <mxRectangle width="76.14999389648438" height="30" as="alternateBounds" />
          </mxGeometry>
        </mxCell>
        <mxCell id="iiKmWWzBk5WKIRumK6L6-21" value="fk" style="shape=partialRectangle;connectable=0;fillColor=none;top=0;left=0;bottom=0;right=0;align=left;spacingLeft=6;overflow=hidden;" parent="iiKmWWzBk5WKIRumK6L6-19" vertex="1">
          <mxGeometry x="76.14999389648438" width="103.85000610351562" height="30" as="geometry">
            <mxRectangle width="103.85000610351562" height="30" as="alternateBounds" />
          </mxGeometry>
        </mxCell>
        <mxCell id="iiKmWWzBk5WKIRumK6L6-22" value="" style="shape=partialRectangle;collapsible=0;dropTarget=0;pointerEvents=0;fillColor=none;top=0;left=0;bottom=0;right=0;points=[[0,0.5],[1,0.5]];portConstraint=eastwest;" parent="iiKmWWzBk5WKIRumK6L6-12" vertex="1">
          <mxGeometry y="119" width="180" height="30" as="geometry" />
        </mxCell>
        <mxCell id="iiKmWWzBk5WKIRumK6L6-23" value="name" style="shape=partialRectangle;connectable=0;fillColor=none;top=0;left=0;bottom=0;right=0;editable=1;overflow=hidden;" parent="iiKmWWzBk5WKIRumK6L6-22" vertex="1">
          <mxGeometry width="76.14999389648438" height="30" as="geometry">
            <mxRectangle width="76.14999389648438" height="30" as="alternateBounds" />
          </mxGeometry>
        </mxCell>
        <mxCell id="iiKmWWzBk5WKIRumK6L6-24" value="varchar" style="shape=partialRectangle;connectable=0;fillColor=none;top=0;left=0;bottom=0;right=0;align=left;spacingLeft=6;overflow=hidden;" parent="iiKmWWzBk5WKIRumK6L6-22" vertex="1">
          <mxGeometry x="76.14999389648438" width="103.85000610351562" height="30" as="geometry">
            <mxRectangle width="103.85000610351562" height="30" as="alternateBounds" />
          </mxGeometry>
        </mxCell>
        <mxCell id="iiKmWWzBk5WKIRumK6L6-25" value="" style="edgeStyle=entityRelationEdgeStyle;fontSize=12;html=1;endArrow=ERmany;endFill=0;rounded=0;exitX=1.006;exitY=0.003;exitDx=0;exitDy=0;exitPerimeter=0;entryX=0;entryY=0.5;entryDx=0;entryDy=0;startArrow=ERone;startFill=0;" parent="1" source="iiKmWWzBk5WKIRumK6L6-8" target="iiKmWWzBk5WKIRumK6L6-19" edge="1">
          <mxGeometry width="100" height="100" relative="1" as="geometry">
            <mxPoint x="274" y="652" as="sourcePoint" />
            <mxPoint x="416" y="438" as="targetPoint" />
          </mxGeometry>
        </mxCell>
        <mxCell id="iiKmWWzBk5WKIRumK6L6-26" value="timetable" style="shape=table;startSize=30;container=1;collapsible=1;childLayout=tableLayout;fixedRows=1;rowLines=0;fontStyle=1;align=center;resizeLast=1;fillColor=none;gradientColor=none;" parent="1" vertex="1">
          <mxGeometry x="590" y="130" width="180" height="130" as="geometry" />
        </mxCell>
        <mxCell id="iiKmWWzBk5WKIRumK6L6-27" value="" style="shape=partialRectangle;collapsible=0;dropTarget=0;pointerEvents=0;fillColor=none;top=0;left=0;bottom=1;right=0;points=[[0,0.5],[1,0.5]];portConstraint=eastwest;" parent="iiKmWWzBk5WKIRumK6L6-26" vertex="1">
          <mxGeometry y="30" width="180" height="30" as="geometry" />
        </mxCell>
        <mxCell id="iiKmWWzBk5WKIRumK6L6-28" value="id&#xa;" style="shape=partialRectangle;connectable=0;fillColor=none;top=0;left=0;bottom=0;right=0;fontStyle=1;overflow=hidden;" parent="iiKmWWzBk5WKIRumK6L6-27" vertex="1">
          <mxGeometry width="80.55001831054688" height="30" as="geometry">
            <mxRectangle width="80.55001831054688" height="30" as="alternateBounds" />
          </mxGeometry>
        </mxCell>
        <mxCell id="iiKmWWzBk5WKIRumK6L6-29" value="idtimetable" style="shape=partialRectangle;connectable=0;fillColor=none;top=0;left=0;bottom=0;right=0;align=left;spacingLeft=6;fontStyle=5;overflow=hidden;" parent="iiKmWWzBk5WKIRumK6L6-27" vertex="1">
          <mxGeometry x="80.55001831054688" width="99.44998168945312" height="30" as="geometry">
            <mxRectangle width="99.44998168945312" height="30" as="alternateBounds" />
          </mxGeometry>
        </mxCell>
        <mxCell id="iiKmWWzBk5WKIRumK6L6-30" value="" style="shape=partialRectangle;collapsible=0;dropTarget=0;pointerEvents=0;fillColor=none;top=0;left=0;bottom=0;right=0;points=[[0,0.5],[1,0.5]];portConstraint=eastwest;" parent="iiKmWWzBk5WKIRumK6L6-26" vertex="1">
          <mxGeometry y="60" width="180" height="30" as="geometry" />
        </mxCell>
        <mxCell id="iiKmWWzBk5WKIRumK6L6-31" value="name" style="shape=partialRectangle;connectable=0;fillColor=none;top=0;left=0;bottom=0;right=0;editable=1;overflow=hidden;" parent="iiKmWWzBk5WKIRumK6L6-30" vertex="1">
          <mxGeometry width="80.55001831054688" height="30" as="geometry">
            <mxRectangle width="80.55001831054688" height="30" as="alternateBounds" />
          </mxGeometry>
        </mxCell>
        <mxCell id="iiKmWWzBk5WKIRumK6L6-32" value="varchar" style="shape=partialRectangle;connectable=0;fillColor=none;top=0;left=0;bottom=0;right=0;align=left;spacingLeft=6;overflow=hidden;" parent="iiKmWWzBk5WKIRumK6L6-30" vertex="1">
          <mxGeometry x="80.55001831054688" width="99.44998168945312" height="30" as="geometry">
            <mxRectangle width="99.44998168945312" height="30" as="alternateBounds" />
          </mxGeometry>
        </mxCell>
        <mxCell id="iiKmWWzBk5WKIRumK6L6-33" value="" style="shape=partialRectangle;collapsible=0;dropTarget=0;pointerEvents=0;fillColor=none;top=0;left=0;bottom=0;right=0;points=[[0,0.5],[1,0.5]];portConstraint=eastwest;" parent="iiKmWWzBk5WKIRumK6L6-26" vertex="1">
          <mxGeometry y="90" width="180" height="30" as="geometry" />
        </mxCell>
        <mxCell id="iiKmWWzBk5WKIRumK6L6-34" value="Description" style="shape=partialRectangle;connectable=0;fillColor=none;top=0;left=0;bottom=0;right=0;editable=1;overflow=hidden;" parent="iiKmWWzBk5WKIRumK6L6-33" vertex="1">
          <mxGeometry width="80.55001831054688" height="30" as="geometry">
            <mxRectangle width="80.55001831054688" height="30" as="alternateBounds" />
          </mxGeometry>
        </mxCell>
        <mxCell id="iiKmWWzBk5WKIRumK6L6-35" value="text" style="shape=partialRectangle;connectable=0;fillColor=none;top=0;left=0;bottom=0;right=0;align=left;spacingLeft=6;overflow=hidden;" parent="iiKmWWzBk5WKIRumK6L6-33" vertex="1">
          <mxGeometry x="80.55001831054688" width="99.44998168945312" height="30" as="geometry">
            <mxRectangle width="99.44998168945312" height="30" as="alternateBounds" />
          </mxGeometry>
        </mxCell>
        <mxCell id="iiKmWWzBk5WKIRumK6L6-36" value="" style="edgeStyle=elbowEdgeStyle;fontSize=12;html=1;endArrow=ERmany;endFill=0;rounded=0;exitX=0;exitY=0.5;exitDx=0;exitDy=0;entryX=0;entryY=0.5;entryDx=0;entryDy=0;startArrow=ERone;startFill=0;" parent="1" source="iiKmWWzBk5WKIRumK6L6-33" target="iiKmWWzBk5WKIRumK6L6-13" edge="1">
          <mxGeometry width="100" height="100" relative="1" as="geometry">
            <mxPoint x="334" y="351" as="sourcePoint" />
            <mxPoint x="365" y="298" as="targetPoint" />
            <Array as="points">
              <mxPoint x="360" y="314" />
            </Array>
          </mxGeometry>
        </mxCell>
        <mxCell id="iiKmWWzBk5WKIRumK6L6-37" value="description" style="text;html=1;align=center;verticalAlign=middle;resizable=0;points=[];autosize=1;strokeColor=none;fillColor=none;" parent="1" vertex="1">
          <mxGeometry x="419" y="510" width="68" height="18" as="geometry" />
        </mxCell>
        <mxCell id="iiKmWWzBk5WKIRumK6L6-38" value="text" style="text;html=1;align=center;verticalAlign=middle;resizable=0;points=[];autosize=1;strokeColor=none;fillColor=none;" parent="1" vertex="1">
          <mxGeometry x="522" y="509" width="29" height="18" as="geometry" />
        </mxCell>
        <mxCell id="jkiswng4xukaDc3kLj3M-1" value="Table" style="shape=table;startSize=30;container=1;collapsible=1;childLayout=tableLayout;fixedRows=1;rowLines=0;fontStyle=1;align=center;resizeLast=1;" vertex="1" parent="1">
          <mxGeometry x="730" y="290" width="180" height="160" as="geometry" />
        </mxCell>
        <mxCell id="jkiswng4xukaDc3kLj3M-2" value="" style="shape=partialRectangle;collapsible=0;dropTarget=0;pointerEvents=0;fillColor=none;top=0;left=0;bottom=1;right=0;points=[[0,0.5],[1,0.5]];portConstraint=eastwest;" vertex="1" parent="jkiswng4xukaDc3kLj3M-1">
          <mxGeometry y="30" width="180" height="30" as="geometry" />
        </mxCell>
        <mxCell id="jkiswng4xukaDc3kLj3M-3" value="PK" style="shape=partialRectangle;connectable=0;fillColor=none;top=0;left=0;bottom=0;right=0;fontStyle=1;overflow=hidden;" vertex="1" parent="jkiswng4xukaDc3kLj3M-2">
          <mxGeometry width="30" height="30" as="geometry">
            <mxRectangle width="30" height="30" as="alternateBounds" />
          </mxGeometry>
        </mxCell>
        <mxCell id="jkiswng4xukaDc3kLj3M-4" value="UniqueID" style="shape=partialRectangle;connectable=0;fillColor=none;top=0;left=0;bottom=0;right=0;align=left;spacingLeft=6;fontStyle=5;overflow=hidden;" vertex="1" parent="jkiswng4xukaDc3kLj3M-2">
          <mxGeometry x="30" width="150" height="30" as="geometry">
            <mxRectangle width="150" height="30" as="alternateBounds" />
          </mxGeometry>
        </mxCell>
        <mxCell id="jkiswng4xukaDc3kLj3M-5" value="" style="shape=partialRectangle;collapsible=0;dropTarget=0;pointerEvents=0;fillColor=none;top=0;left=0;bottom=0;right=0;points=[[0,0.5],[1,0.5]];portConstraint=eastwest;" vertex="1" parent="jkiswng4xukaDc3kLj3M-1">
          <mxGeometry y="60" width="180" height="30" as="geometry" />
        </mxCell>
        <mxCell id="jkiswng4xukaDc3kLj3M-6" value="" style="shape=partialRectangle;connectable=0;fillColor=none;top=0;left=0;bottom=0;right=0;editable=1;overflow=hidden;" vertex="1" parent="jkiswng4xukaDc3kLj3M-5">
          <mxGeometry width="30" height="30" as="geometry">
            <mxRectangle width="30" height="30" as="alternateBounds" />
          </mxGeometry>
        </mxCell>
        <mxCell id="jkiswng4xukaDc3kLj3M-7" value="Row 1" style="shape=partialRectangle;connectable=0;fillColor=none;top=0;left=0;bottom=0;right=0;align=left;spacingLeft=6;overflow=hidden;" vertex="1" parent="jkiswng4xukaDc3kLj3M-5">
          <mxGeometry x="30" width="150" height="30" as="geometry">
            <mxRectangle width="150" height="30" as="alternateBounds" />
          </mxGeometry>
        </mxCell>
        <mxCell id="jkiswng4xukaDc3kLj3M-8" value="" style="shape=partialRectangle;collapsible=0;dropTarget=0;pointerEvents=0;fillColor=none;top=0;left=0;bottom=0;right=0;points=[[0,0.5],[1,0.5]];portConstraint=eastwest;" vertex="1" parent="jkiswng4xukaDc3kLj3M-1">
          <mxGeometry y="90" width="180" height="30" as="geometry" />
        </mxCell>
        <mxCell id="jkiswng4xukaDc3kLj3M-9" value="" style="shape=partialRectangle;connectable=0;fillColor=none;top=0;left=0;bottom=0;right=0;editable=1;overflow=hidden;" vertex="1" parent="jkiswng4xukaDc3kLj3M-8">
          <mxGeometry width="30" height="30" as="geometry">
            <mxRectangle width="30" height="30" as="alternateBounds" />
          </mxGeometry>
        </mxCell>
        <mxCell id="jkiswng4xukaDc3kLj3M-10" value="Row 2" style="shape=partialRectangle;connectable=0;fillColor=none;top=0;left=0;bottom=0;right=0;align=left;spacingLeft=6;overflow=hidden;" vertex="1" parent="jkiswng4xukaDc3kLj3M-8">
          <mxGeometry x="30" width="150" height="30" as="geometry">
            <mxRectangle width="150" height="30" as="alternateBounds" />
          </mxGeometry>
        </mxCell>
        <mxCell id="jkiswng4xukaDc3kLj3M-11" value="" style="shape=partialRectangle;collapsible=0;dropTarget=0;pointerEvents=0;fillColor=none;top=0;left=0;bottom=0;right=0;points=[[0,0.5],[1,0.5]];portConstraint=eastwest;" vertex="1" parent="jkiswng4xukaDc3kLj3M-1">
          <mxGeometry y="120" width="180" height="30" as="geometry" />
        </mxCell>
        <mxCell id="jkiswng4xukaDc3kLj3M-12" value="" style="shape=partialRectangle;connectable=0;fillColor=none;top=0;left=0;bottom=0;right=0;editable=1;overflow=hidden;" vertex="1" parent="jkiswng4xukaDc3kLj3M-11">
          <mxGeometry width="30" height="30" as="geometry">
            <mxRectangle width="30" height="30" as="alternateBounds" />
          </mxGeometry>
        </mxCell>
        <mxCell id="jkiswng4xukaDc3kLj3M-13" value="Row 3" style="shape=partialRectangle;connectable=0;fillColor=none;top=0;left=0;bottom=0;right=0;align=left;spacingLeft=6;overflow=hidden;" vertex="1" parent="jkiswng4xukaDc3kLj3M-11">
          <mxGeometry x="30" width="150" height="30" as="geometry">
            <mxRectangle width="150" height="30" as="alternateBounds" />
          </mxGeometry>
        </mxCell>
        <mxCell id="jkiswng4xukaDc3kLj3M-14" value="Table" style="shape=table;startSize=30;container=1;collapsible=1;childLayout=tableLayout;fixedRows=1;rowLines=0;fontStyle=1;align=center;resizeLast=1;" vertex="1" parent="1">
          <mxGeometry x="750" y="480" width="180" height="160" as="geometry" />
        </mxCell>
        <mxCell id="jkiswng4xukaDc3kLj3M-18" value="" style="shape=partialRectangle;collapsible=0;dropTarget=0;pointerEvents=0;fillColor=none;top=0;left=0;bottom=1;right=0;points=[[0,0.5],[1,0.5]];portConstraint=eastwest;" vertex="1" parent="jkiswng4xukaDc3kLj3M-14">
          <mxGeometry y="30" width="180" height="30" as="geometry" />
        </mxCell>
        <mxCell id="jkiswng4xukaDc3kLj3M-19" value="PK" style="shape=partialRectangle;connectable=0;fillColor=none;top=0;left=0;bottom=0;right=0;fontStyle=1;overflow=hidden;" vertex="1" parent="jkiswng4xukaDc3kLj3M-18">
          <mxGeometry width="60" height="30" as="geometry">
            <mxRectangle width="60" height="30" as="alternateBounds" />
          </mxGeometry>
        </mxCell>
        <mxCell id="jkiswng4xukaDc3kLj3M-20" value="UniqueID" style="shape=partialRectangle;connectable=0;fillColor=none;top=0;left=0;bottom=0;right=0;align=left;spacingLeft=6;fontStyle=5;overflow=hidden;" vertex="1" parent="jkiswng4xukaDc3kLj3M-18">
          <mxGeometry x="60" width="120" height="30" as="geometry">
            <mxRectangle width="120" height="30" as="alternateBounds" />
          </mxGeometry>
        </mxCell>
        <mxCell id="jkiswng4xukaDc3kLj3M-21" value="" style="shape=partialRectangle;collapsible=0;dropTarget=0;pointerEvents=0;fillColor=none;top=0;left=0;bottom=0;right=0;points=[[0,0.5],[1,0.5]];portConstraint=eastwest;" vertex="1" parent="jkiswng4xukaDc3kLj3M-14">
          <mxGeometry y="60" width="180" height="30" as="geometry" />
        </mxCell>
        <mxCell id="jkiswng4xukaDc3kLj3M-22" value="UK, FK" style="shape=partialRectangle;connectable=0;fillColor=none;top=0;left=0;bottom=0;right=0;editable=1;overflow=hidden;" vertex="1" parent="jkiswng4xukaDc3kLj3M-21">
          <mxGeometry width="60" height="30" as="geometry">
            <mxRectangle width="60" height="30" as="alternateBounds" />
          </mxGeometry>
        </mxCell>
        <mxCell id="jkiswng4xukaDc3kLj3M-23" value="Row 3: integer" style="shape=partialRectangle;connectable=0;fillColor=none;top=0;left=0;bottom=0;right=0;align=left;spacingLeft=6;overflow=hidden;" vertex="1" parent="jkiswng4xukaDc3kLj3M-21">
          <mxGeometry x="60" width="120" height="30" as="geometry">
            <mxRectangle width="120" height="30" as="alternateBounds" />
          </mxGeometry>
        </mxCell>
        <mxCell id="jkiswng4xukaDc3kLj3M-24" value="" style="shape=partialRectangle;collapsible=0;dropTarget=0;pointerEvents=0;fillColor=none;top=0;left=0;bottom=0;right=0;points=[[0,0.5],[1,0.5]];portConstraint=eastwest;" vertex="1" parent="jkiswng4xukaDc3kLj3M-14">
          <mxGeometry y="90" width="180" height="30" as="geometry" />
        </mxCell>
        <mxCell id="jkiswng4xukaDc3kLj3M-25" value="" style="shape=partialRectangle;connectable=0;fillColor=none;top=0;left=0;bottom=0;right=0;editable=1;overflow=hidden;" vertex="1" parent="jkiswng4xukaDc3kLj3M-24">
          <mxGeometry width="60" height="30" as="geometry">
            <mxRectangle width="60" height="30" as="alternateBounds" />
          </mxGeometry>
        </mxCell>
        <mxCell id="jkiswng4xukaDc3kLj3M-26" value="Row 4" style="shape=partialRectangle;connectable=0;fillColor=none;top=0;left=0;bottom=0;right=0;align=left;spacingLeft=6;overflow=hidden;" vertex="1" parent="jkiswng4xukaDc3kLj3M-24">
          <mxGeometry x="60" width="120" height="30" as="geometry">
            <mxRectangle width="120" height="30" as="alternateBounds" />
          </mxGeometry>
        </mxCell>
        <mxCell id="jkiswng4xukaDc3kLj3M-27" value="" style="shape=partialRectangle;collapsible=0;dropTarget=0;pointerEvents=0;fillColor=none;top=0;left=0;bottom=0;right=0;points=[[0,0.5],[1,0.5]];portConstraint=eastwest;" vertex="1" parent="jkiswng4xukaDc3kLj3M-14">
          <mxGeometry y="120" width="180" height="30" as="geometry" />
        </mxCell>
        <mxCell id="jkiswng4xukaDc3kLj3M-28" value="" style="shape=partialRectangle;connectable=0;fillColor=none;top=0;left=0;bottom=0;right=0;editable=1;overflow=hidden;" vertex="1" parent="jkiswng4xukaDc3kLj3M-27">
          <mxGeometry width="60" height="30" as="geometry">
            <mxRectangle width="60" height="30" as="alternateBounds" />
          </mxGeometry>
        </mxCell>
        <mxCell id="jkiswng4xukaDc3kLj3M-29" value="Row 4" style="shape=partialRectangle;connectable=0;fillColor=none;top=0;left=0;bottom=0;right=0;align=left;spacingLeft=6;overflow=hidden;" vertex="1" parent="jkiswng4xukaDc3kLj3M-27">
          <mxGeometry x="60" width="120" height="30" as="geometry">
            <mxRectangle width="120" height="30" as="alternateBounds" />
          </mxGeometry>
        </mxCell>
      </root>
    </mxGraphModel>
  </diagram>
</mxfile>
